<svg fill="none" height="18" viewBox="0 0 18 18" width="18" xmlns="http://www.w3.org/2000/svg" xmlns:xlink="http://www.w3.org/1999/xlink"><clipPath id="a"><path d="m0 0h18v18h-18z"/></clipPath><g clip-path="url(#a)" fill="#fff"><path d="m10.2471 10.0964c-.0268 0-.0528-.0093-.0736-.0289-.0416-.0399-.0425-.1054-.0026-.14621.1594-.16156.3397-.2806.5364-.35373.2522-.09438.4429-.08503.9031-.06292.0953.00425.2019.00935.3241.01445.1256.00511.4428.01701.6734.01871.2253.0017.6101-.00595 1.3571-.09353.6248-.07313 1.0374-.1216 1.6128-.24574.0087-.0017.9117-.20152 1.8789-.72445.084-.04507.338-.18282.3302-.27635-.007-.08588-.2262-.18367-.384-.22193-.9879.05102-1.9646.15645-2.9032.31376-.0892.01531-2.2004.36308-3.3599.14115-.5989-.11479-.9776-.44641-.9932-.46086-.0165-.01446-.0303-.02721-.0373-.03401-.0416-.03997-.0433-.10459-.0026-.14626.0399-.04081.1066-.04251.1491-.00255.0069.00596.0182.01701.0329.02976.0035.0034.3536.30781.8918.4107 1.1214.21427 3.2629-.1386 3.2845-.142.9507-.15901 1.9413-.2653 2.9431-.31716.0096 0 .02 0 .0295.00255.0893.0204.5373.13605.5599.40984.0182.22618-.2678.38094-.4386.47362-.9065.48977-1.7826.7134-1.9352.74401-.5858.1284-1.0027.17686-1.6336.25084-.7591.08928-1.1535.09693-1.384.09438-.234-.0017-.5538-.0136-.6803-.0187-.1231-.0051-.2305-.01021-.3258-.01446-.4412-.02126-.6067-.02976-.8173.04932-.1672.06292-.3224.16496-.4602.30437-.0208.0213-.0485.0315-.0754.0315z"/><path d="m6.80917 8.97406c-.01734 0-.03467-.00425-.05114-.01276-.05113-.02806-.06933-.09013-.04159-.1403.06413-.11394.09013-.22277.07713-.32396-.0468-.36818-.59278-.60626-.79904-.69555l-.0182-.00765c-.02427-.0102-2.46298-1.09774-4.45104-3.94879-.17939-.25764-.20365-.47192-.21579-.5748l-.0026-.02296c-.03206-.25424.0936-.46087.16033-.57225.02687-.04507.08493-.06293.13346-.04167.14126.06122.27906.1335.40992.21513.23572.14625.45412.32396.64738.52803.37612.39624.79817.75252 1.20722 1.09774.26779.22618.54424.46001.80597.70235.80337.74571 1.91959 1.38769 3.31661 1.90892.0546.02041.08146.07993.06066.1335s-.08146.07993-.13606.05952c-1.42301-.53144-2.56177-1.18787-3.38594-1.95229-.25826-.23893-.53298-.47192-.79904-.6964-.41338-.34862-.83977-.70915-1.21935-1.10879-.07193-.07567-.27733-.2925-.61011-.49827-.09533-.05952-.195-.11309-.29639-.16156-.05287.09608-.10313.22023-.08493.36053l.0026.02636c.0104.09268.03033.26614.18026.48127 1.95513 2.80344 4.33924 3.86631 4.36264 3.87651l.0182.00766c.23572.10203.86143.37413.92296.8588.0182.1454-.0156.29675-.10226.44896-.01907.03401-.05547.05357-.09186.05357z"/><path d="m10.1232 7.83125c-.0061 0-.0121 0-.0182-.0017-.0572-.0102-.0953-.06377-.0858-.11989.2739-1.52459.5451-2.84.806-3.90968.3978-1.63258.4402-1.80349.4558-1.8358.0026-.0051.2591-.54759.3545-1.41915.0086-.075677.0121-.184515-.0503-.251689-.0286-.03061-.0702-.051868-.1248-.062922-.0035 0-.0069-.0017-.0104-.002551-.0745-.022958-.1447-.027209-.2088-.013605-.0763.017006-.2028.138599-.3753.362228-.8467 1.096889-1.19249 2.482029-1.52701 3.821249-.14213.568-.28859 1.15556-.47232 1.71761-.00606.0187-.013.04251-.0208.06972-.04679.16326-.13346.46852-.37525.74571-.07886.09014-.16726.17176-.26432.24404-.0468.03486-.11267.02551-.14733-.02041-.03553-.04591-.026-.11054.0208-.14455.08493-.06292.16293-.1352.23139-.21342.21146-.24234.28772-.50848.33279-.66664.00866-.02976.0156-.05612.02253-.07738.18113-.55439.32672-1.13855.46798-1.70315.33972-1.35963.69071-2.76602 1.56424-3.896923.2184-.282299.3623-.4098442.4975-.4396047.0996-.02210777.2054-.01615567.3128.0161557.0954.0204072.1734.0620719.2314.124994.1335.143701.1118.346922.104.413246-.0996.908972-.3622 1.462512-.3735 1.485472-.0147.04592-.1751.7032-.4411 1.79243-.2609 1.06883-.5313 2.37999-.8042 3.90033-.0087.05017-.0538.08503-.104.08503z"/><path d="m.842359 13.9075c-.406452 0-.708907-.1429-.83283616-.403-.01819932-.0383-.01126625-.0825.01819936-.1131 1.0044278-1.0757 2.3251778-1.8001 3.6025978-2.4999 1.03996-.5697 2.11459-1.15898 3.01069-1.93445.04333-.03742.11006-.03401.14906.00935.03813.04252.03467.10799-.00953.14625-.91343.78993-1.99846 1.38425-3.04796 1.95995-1.24102.6802-2.52277 1.3826-3.498599 2.4038.199326.2831.721907.2279.884839.2032 1.38488-.2134 2.61376-.9761 3.80192-1.7133.50438-.313 1.02523-.6361 1.55388-.9158l.03206-.017c.13866-.0748.42725-.2296.8207-.2993.2158-.0383.43766-.0476.65951-.0281.05807.0051.10053.0553.09533.1123-.0052.0569-.05633.0986-.11439.0935-.20279-.0179-.40645-.0085-.60405.0255-.35965.0638-.61791.2024-.75743.2772l-.0338.0179c-.52258.2763-1.04083.5977-1.54175.9081-1.20635.7482-2.45344 1.522-3.88165 1.7422-.1092.017-.212328.0247-.310258.0247z"/><path d="m11.7612 18c-.2842 0-.5962-.1862-.8718-.5306-.89266-1.1164-1.26791-2.516-1.63103-3.8706-.15079-.562-.30679-1.1436-.49745-1.6954-.00693-.0213-.01473-.0468-.02426-.0766-.04767-.1581-.12826-.4217-.34406-.6615-.07019-.0774-.14906-.148-.23485-.21-.0468-.0332-.0572-.0987-.0234-.1446.03466-.0459.10053-.0561.14732-.0229.09793.0705.18893.1505.26866.2397.24699.2738.33885.5765.38825.739.0078.0272.0156.0501.02167.0688.19326.5587.35012 1.1437.50178 1.7091.35792 1.3333.72707 2.7125 1.59287 3.7949.1023.1276.4463.517.7886.443-.0043-1.3996-.4549-2.7711-.8909-4.0984-.3683-1.1224-.7496-2.2831-.8692-3.4718-.0061-.057.0364-.1071.0945-.1131.058-.0059.1092.0357.1152.0927.1179 1.1666.4949 2.3162.8606 3.4284.4489 1.3664.9126 2.7796.9004 4.2388 0 .0416-.026.079-.0658.0952-.0728.0289-.1491.0434-.228.0434z"/><path d="m11.0426 1.43954c-.052 0-.1014-.0136-.143-.03996-.1473-.09438-.1317-.30016-.0858-.414946.0494-.123293.1699-.250838.3172-.238084.0702.005952.1161.041665.1343.05527.1214.092682.1855.30016.0876.46001-.0512.08333-.1404.1471-.2384.16921-.0242.0051-.0485.0085-.0719.0085zm-.0277-.21342c.0112.0068.0303.0085.052.0034.0416-.00935.084-.03911.1057-.07398.0416-.06802.0052-.158151-.0373-.191313-.0069-.005102-.0147-.011904-.0225-.011904-.0243-.003401-.0789.048467-.1023.107987-.0234.05867-.026.1471.0044.16666z"/><path d="m10.7775 2.32472c-.0433 0-.0866-.01191-.1221-.03572-.0564-.03741-.0919-.10203-.0962-.17686-.0052-.08078.026-.15815.0832-.20747.0537-.04592.1317-.06718.2079-.05612.0633.00935.1144.03911.1422.08418.0173.02636.0242.05952.0225.10714-.0026.06717-.0061.17941-.104.24403-.0399.02636-.0867.03997-.1326.03997zm-.0043-.20748c.0043 0 .0139 0 .0182-.0034.0069-.0068.0095-.03741.0104-.06037-.0087 0-.0173.0034-.0225.00765-.013.01191-.0148.04592-.007.05697z"/><path d="m10.319 3.86376c-.0451 0-.0901-.01105-.13-.03401-.1101-.06292-.1378-.19047-.1274-.2806.013-.11734.0936-.18536.1465-.22958.0381-.03231.0849-.06547.1482-.06887.0814-.0051.1629.04421.2019.12329.0312.06377.0312.12074.0268.17346-.0078.09098-.019.21513-.1334.28145-.0399.02296-.0867.03486-.1326.03486zm-.0243-.21257c.0156.0085.0373.0068.0494 0 .0217-.01276.0269-.07313.0312-.12244.0035-.03742 0-.05017-.006-.06463 0-.0017-.0018-.00255-.0026-.00425-.0035.00255-.0087.00595-.0165.01276-.0477.04081-.0754.06462-.0789.09948-.0017.0119-.0008.06462.0234.07823z"/><path d="m9.41936 6.62042c-.03553 0-.07019-.0068-.10313-.02381-.08839-.04506-.14299-.15305-.14819-.28995-.00433-.12414.03553-.28315.15946-.35712.1066-.06378.27906-.06463.36659.03571.03293.03741.04333.07823.05026.11734.0208.11649.04853.27635-.0702.40219-.06153.06547-.16032.11649-.25479.11649zm-.00606-.20747c.01473.0051.07106-.01276.10659-.05017.0442-.04676.03553-.11989.01734-.22618-.0026-.0153-.00434-.02041-.00521-.02041-.00953-.0068-.06499-.0085-.09532.00936-.0338.0204-.05807.08843-.05894.16155 0 .07908.026.1199.03467.12585z"/><path d="m9.44538 7.27092c-.01646 0-.03293-.0034-.04853-.0119l-.33105-.17006c-.052-.02636-.07194-.08843-.04507-.13945.02687-.05017.09013-.07058.14213-.04422l.33105.17006c.052.02636.07193.08843.04507.13945-.01907.03572-.05547.05527-.0936.05527z"/><path d="m9.15342 8.19689c-.0078 0-.0156 0-.0234-.00255-.16466-.03571-.30592-.14625-.37958-.2942-.02514-.05102-.00347-.11309.0494-.13775.05199-.02466.11526-.0034.14039.04846.04507.09099.13519.16071.23572.18282.0572.01275.09273.06802.07974.12329-.01127.04847-.0546.08078-.10313.08078z"/><path d="m7.94451 8.71642c-.03207 0-.06327-.0136-.08407-.04081-.03553-.04507-.026-.11054.01994-.14455.05806-.04337.10052-.10544.11959-.17432.0156-.05526.0728-.08758.12913-.07227.05633.0153.08926.07142.07366.12669-.0312.11224-.10053.21343-.19499.284-.01907.01446-.0416.02126-.06413.02126z"/><path d="m7.21205 7.9418c-.05027 0-.09447-.03486-.10313-.08503-.0104-.05612.02686-.10969.08493-.12074.06759-.01191.13346-.04847.17852-.09864.039-.04251.10487-.04676.14906-.0085.04334.03826.04767.10289.00867.14625-.07713.08588-.18373.14455-.29812.16496-.00607.00085-.013.0017-.01907.0017z"/><path d="m9.30162 9.22319c-.04766 0-.091-.03146-.10226-.07908-.01994-.08333-.01734-.17006.00953-.25084.01733-.05442.07713-.08418.1326-.06717.05546.01701.08579.07568.06846.1301-.01473.04421-.01647.09438-.0052.13944.01387.05527-.0208.11139-.078.125-.00866.0017-.01646.00255-.02513.00255z"/><path d="m10.6579 9.19683c-.0494 0-.0936-.03486-.1031-.08418l-.0494-.26019c-.0104-.05612.0269-.10969.0841-.12074.0572-.01021.1118.02636.123.08248l.0494.26019c.0104.05612-.0268.10969-.084.12074-.0061.00085-.013.0017-.0191.0017z"/><path d="m8.47827 9.60838s-.00694 0-.0104 0c-.1196-.01105-.22013-.10714-.23573-.22363-.0078-.05697.0338-.10799.091-.11564s.11006.03316.11786.08928c.0026.02041.02513.04252.0468.04422.05806.0051.10053.05612.09533.11224-.0052.05357-.05113.09353-.10486.09353z"/><path d="m8.34819 10.3235c-.00954 0-.01994-.0017-.02947-.0042-.13953-.04-.24179-.1718-.24352-.3147 0-.05693.04593-.10369.10399-.10455h.00087c.05806 0 .10486.04592.10573.10205 0 .0519.04073.1037.09186.1182.05547.0161.0884.0731.07193.1284-.013.045-.05546.0748-.10139.0748z"/><path d="m4.27337 11.934c-.03554 0-.0702-.0077-.10313-.0239-.0884-.045-.14386-.153-.1482-.2908-.00433-.1241.03553-.2831.15946-.3571.1066-.0638.27906-.0646.36659.0357.03293.0374.04333.0783.05026.1174.01994.1165.04854.2763-.07019.4022-.0624.0654-.16033.1165-.25479.1165zm-.00607-.2075c.01473.0051.07106-.0128.1066-.0502.04419-.0468.03553-.1199.01733-.2262-.0026-.0153-.00433-.0204-.0052-.0212-.00953-.0068-.065-.0085-.09533.0093-.0338.0204-.05893.0885-.05893.1616 0 .0782.026.1199.03466.1258z"/><path d="m16.9227 8.54467c-.045 0-.0901-.01105-.1299-.03401-.1101-.06292-.1378-.19047-.1274-.2806.013-.11734.0936-.18537.1464-.22958.0382-.03231.0849-.06547.1482-.06887.0823-.00511.1629.04421.2019.12329.0312.06377.0312.12074.0269.17261-.0078.09098-.0191.21513-.1335.2823-.0398.02296-.0866.03486-.1326.03486zm-.0242-.21257c.0156.0085.0372.0068.0494 0 .0216-.01276.0268-.07313.0312-.12245.0034-.03741 0-.05016-.0061-.06462 0-.0017-.0017-.00255-.0026-.0034-.0035.00255-.0087.00595-.0165.01275-.0476.04082-.0754.06463-.0788.09949-.0018.0119-.0009.06462.0234.07823z"/><path d="m16.2614 8.68498c-.0433 0-.0866-.01191-.1222-.03572-.0563-.03741-.0918-.10203-.0962-.17686-.0052-.08078.026-.15815.0824-.20747.0537-.04592.1317-.06718.208-.05612.0632.00935.1144.03911.1421.08418.0173.02806.0243.06037.0225.10714-.0026.06717-.006.17941-.104.24403-.0398.02636-.0866.03997-.1326.03997zm-.0043-.20663c.0043 0 .0139 0 .0182-.0034.0069-.0068.0095-.03741.0104-.06037-.0087 0-.0173.0034-.0225.00765-.013.01106-.0139.04592-.007.05697z"/><path d="m14.9487 9.06419c-.0451 0-.0902-.01106-.13-.03401-.111-.06293-.1378-.19047-.1274-.2806.013-.11734.0936-.18537.1464-.23043.0382-.03232.085-.06548.1482-.06888.0824-.00425.1638.04422.202.12329.0312.06378.0312.12075.0268.17262-.0078.09098-.019.21512-.1334.28144-.0399.02296-.0867.03487-.1326.03487zm-.0243-.21258c.0156.00851.0381.0068.0494 0 .0217-.01275.0269-.07312.0312-.12244.0035-.03741 0-.05017-.0061-.06462 0-.0017-.0017-.00255-.0026-.0034-.0034.00255-.0086.00595-.0164.01275-.0477.04081-.0746.06462-.0789.09949-.0017.0119-.0009.06462.0234.07822z"/><path d="m3.58614 12.087c-.04333 0-.08666-.0119-.12219-.0357-.05634-.0374-.09187-.102-.0962-.1769-.0052-.0807.026-.1581.08233-.2074.05373-.0459.13173-.0672.20799-.0562.06327.0094.1144.0392.14213.0842.01733.0264.02427.0595.02253.1072-.0026.0671-.00606.1794-.10399.244-.03987.0264-.08667.04-.1326.04zm-.00433-.2066c.00433 0 .01386 0 .0182-.0034.00693-.0068.00953-.0374.01126-.0604-.00866 0-.01733.0034-.02253.0077-.013.0119-.01387.0459-.00693.0569z"/><path d="m2.11365 13.0717c-.052 0-.1014-.0137-.143-.04-.14732-.0944-.13172-.3002-.08579-.415.0494-.1232.16899-.2508.31719-.238.06933.0059.11612.0416.13346.0552.12133.0927.18546.3002.08839.46-.05113.0834-.14039.1471-.23832.1693-.02427.0051-.04853.0085-.07193.0085zm.06846-.4873c-.026 0-.07713.0494-.10053.108-.0234.0587-.026.1471.0052.1667.01127.0068.03034.0085.052.0034.0416-.0094.08406-.0391.10486-.074.0416-.068.00607-.159-.03726-.1913-.00607-.0051-.01473-.0119-.02253-.0119 0 0-.00087 0-.00174 0z"/><path d="m6.19202 7.41376c-.052 0-.1014-.01361-.143-.03997-.14732-.09438-.13173-.30015-.08579-.41494.04939-.1233.17072-.25084.31718-.23809.06934.00595.11613.04167.13347.05527.12133.09354.18546.30016.08839.46001-.05113.08333-.14039.14711-.23832.16921-.02427.00511-.04853.00851-.07193.00851zm-.02773-.21343c.01126.00765.03033.00851.05199.0034.0416-.00935.08407-.03911.10487-.07397.0416-.06803.0052-.15816-.03727-.19132-.00606-.0051-.01473-.0119-.02253-.0119-.02687-.00341-.07886.04761-.10226.10798-.0234.05867-.026.14711.0052.16666z"/><path d="m9.63709 11.5964c-.052 0-.1014-.0136-.143-.04-.14733-.0943-.13173-.3001-.0858-.4149.0494-.1233.16813-.2508.31719-.2381.06933.006.11613.0417.13347.0553.12132.0927.18545.3001.08839.46-.05113.0842-.14039.1471-.23919.1692-.02427.0051-.04853.0085-.07193.0085zm-.02774-.2134c.01127.0068.03034.0085.052.0034.0416-.0094.08407-.0391.10573-.074.0416-.068.0052-.1582-.03726-.1913-.00607-.0051-.0156-.0119-.02254-.0119-.02166-.0034-.07886.0476-.10226.108-.0234.0586-.026.1471.0052.1666z"/><path d="m11.0956 16.6855c-.052 0-.1014-.0137-.143-.04-.1473-.0944-.1317-.3002-.0858-.415.0494-.1232.1699-.2508.3172-.238.0693.0059.1161.0416.1334.0552.1214.0927.1855.3002.0884.46-.0511.0834-.1404.1471-.2383.1693-.0243.0051-.0485.0085-.0719.0085zm-.0277-.2135c.0112.0077.0303.0085.0519.0034.0416-.0093.0841-.0391.1049-.0739.0416-.0681.0061-.1591-.0373-.1914-.006-.0051-.0147-.0119-.0225-.0119-.0234-.0042-.0789.0477-.1022.108-.0234.0587-.026.1471.0052.1667z"/><path d="m10.1821 14.1966c-.0356 0-.0702-.0076-.1032-.0238-.08837-.0451-.14383-.153-.14817-.2908-.00433-.1241.03554-.2831.15947-.3571.1066-.0638.2791-.0646.3666.0357.0329.0374.0433.0782.0502.1173.0208.1165.0486.2764-.0702.4022-.0615.0655-.1603.1165-.2547.1165zm-.0061-.2075c.0147.0051.0711-.0127.1066-.0501.0442-.0468.0355-.1199.0173-.2262-.0026-.0153-.0043-.0204-.0052-.0213-.0095-.0068-.065-.0085-.0953.0094-.0338.0204-.0589.0884-.0589.1616 0 .0782.026.1198.0346.1258z"/><path d="m9.96187 13.2443c-.04333 0-.08666-.0119-.12219-.0357-.05633-.0375-.09187-.1021-.0962-.1769-.0052-.0808.026-.1582.08233-.2075.05373-.0459.13173-.0671.20799-.0561.0633.0094.1144.0391.1421.0842.0174.0263.0243.0595.0226.1071-.0026.0672-.0061.1794-.104.2441-.0399.0263-.0867.0399-.13263.0399zm-.00433-.2075c.00433 0 .01387 0 .0182-.0034.00693-.0068.00953-.0374.0104-.0604-.00867 0-.01733.0034-.02253.0077-.013.0119-.01387.0459-.00694.0569z"/><path d="m2.31832 4.08485c-.04333 0-.08666-.01191-.1222-.03571-.05633-.03742-.09186-.10204-.09619-.17687-.0052-.08078.026-.15815.08233-.20747.05373-.04592.13173-.06717.20799-.05612.06326.00935.11353.03911.14213.08418.01733.02721.02426.06037.02253.10714-.0026.06717-.00607.17941-.104.24403-.03986.02636-.08666.03997-.13259.03997zm-.00433-.20662c.0052 0 .01386 0 .01819-.00341.00694-.0068.00954-.03741.0104-.06037-.00866 0-.01733.0034-.02253.00766-.013.01105-.01386.04591-.00693.05697z"/><path d="m2.83118 4.9054c-.052 0-.1014-.01361-.143-.03997-.14732-.09438-.13172-.30015-.08579-.41495.04939-.12329.16812-.25083.31718-.23808.06934.00595.11613.04167.13347.05527.12133.09268.18546.30016.08839.46001-.05113.08333-.14039.1471-.23832.16921-.02427.0051-.04853.00851-.07193.00851zm.06846-.48723c-.026 0-.07799.04932-.10139.10799s-.026.1471.0052.16666c.01126.0068.03033.0085.05199.0034.0416-.00935.08407-.03911.10487-.07397.0416-.06803.00606-.15901-.03727-.19132-.00607-.0051-.0156-.01191-.02253-.01191 0 0-.00087 0-.00173 0z"/><path d="m3.66663 5.71572c-.052 0-.1014-.01361-.143-.03997-.14733-.09438-.13173-.30015-.08579-.41495.04939-.12329.16986-.24998.31718-.23808.0702.00595.11613.04167.13433.05527.12133.09268.18546.30016.08753.46001-.05113.08333-.14039.1471-.23832.16921-.02427.0051-.04853.00851-.07193.00851zm-.02773-.21343c.01126.0068.03033.0085.05199.0034.0416-.00935.08407-.03911.10573-.07397.0416-.06803.0052-.15816-.03726-.19132-.00694-.0051-.01474-.01191-.02254-.01191-.02426-.00425-.07886.04847-.10226.10799-.0234.05867-.026.1471.00434.16666z"/></g></svg>